<svg width="86" height="86" viewBox="0 0 86 86" fill="none" xmlns="http://www.w3.org/2000/svg">
<path fill-rule="evenodd" clip-rule="evenodd" d="M0 0H86V39.0744H80V6H6V80H80V50.0647H67.0868C64.7257 50.0647 63.2859 51.0612 61.3528 52.999C58.2456 56.1136 53.976 58.5281 49.6636 58.1504C47.4186 57.9537 45.3033 56.998 43.5822 55.2035C41.9007 53.4503 40.7176 51.0295 40.0011 48.0467C38.9905 43.8402 37.0046 42.6785 35.2777 42.6392C33.0714 42.5891 29.4827 44.2097 25.3186 49.2554C22.2596 52.9621 18.6286 54.9386 14.8035 54.5669C11.0682 54.2039 8.11854 51.6874 6.1521 48.5817L11.2214 45.372C12.6068 47.56 14.1374 48.4739 15.3838 48.595C16.5404 48.7074 18.3925 48.2216 20.691 45.4364C25.2753 39.8815 30.4481 36.5279 35.414 36.6408C40.8591 36.7645 44.4556 40.9031 45.8351 46.6451C46.3829 48.9254 47.1721 50.2784 47.9124 51.0503C48.6132 51.781 49.3694 52.1016 50.1872 52.1733C52.0005 52.3321 54.6219 51.2506 57.105 48.7614C59.4129 46.448 62.3153 44.0647 67.0868 44.0647H81.4C83.9405 44.0647 86 46.1242 86 48.6647V86H0V0Z" fill="black"/>
</svg>
