<svg width="406" height="406" viewBox="0 0 406 406" fill="none" xmlns="http://www.w3.org/2000/svg">
<path d="M314.948 183C305.972 183 299.09 181.018 294.303 177.053C289.59 173.089 286.823 166.993 286 158.764L292.171 158.54C292.919 165.347 295.201 170.433 299.015 173.799C302.83 177.091 308.216 178.736 315.173 178.736C321.755 178.736 326.954 177.353 330.769 174.585C334.583 171.817 336.491 168.077 336.491 163.365C336.491 159.849 335.631 157.044 333.91 154.95C332.19 152.78 329.871 151.06 326.954 149.788C324.111 148.442 320.97 147.32 317.529 146.422C314.088 145.45 310.647 144.44 307.206 143.393C303.765 142.345 300.586 141.036 297.669 139.466C294.827 137.82 292.545 135.688 290.825 133.07C289.104 130.377 288.244 126.936 288.244 122.748C288.244 116.539 290.6 111.714 295.313 108.273C300.1 104.758 306.72 103 315.173 103C324.149 103 330.956 104.758 335.593 108.273C340.306 111.789 342.924 117.063 343.447 124.094L337.276 124.655C336.753 118.746 334.658 114.37 330.993 111.527C327.403 108.685 322.092 107.264 315.06 107.264C308.702 107.264 303.691 108.647 300.025 111.415C296.435 114.108 294.64 117.848 294.64 122.635C294.64 126.301 295.5 129.255 297.22 131.499C299.015 133.669 301.334 135.464 304.177 136.885C307.094 138.231 310.273 139.391 313.714 140.363C317.155 141.261 320.596 142.233 324.036 143.281C327.477 144.253 330.619 145.525 333.461 147.095C336.379 148.666 338.698 150.761 340.418 153.379C342.138 155.922 342.999 159.213 342.999 163.252C342.999 169.311 340.455 174.136 335.369 177.727C330.357 181.242 323.55 183 314.948 183Z" fill="white"/>
<path d="M241.381 182.999C234.359 182.999 228.458 181.729 223.678 179.19C218.897 176.65 215.237 172.878 212.697 167.873C210.232 162.794 209 156.594 209 149.274V136.725C209 129.33 210.232 123.131 212.697 118.126C215.237 113.121 218.897 109.349 223.678 106.809C228.458 104.27 234.359 103 241.381 103C248.402 103 254.303 104.27 259.083 106.809C263.939 109.349 267.599 113.121 270.064 118.126C272.529 123.131 273.761 129.33 273.761 136.725V149.274C273.761 156.594 272.529 162.794 270.064 167.873C267.599 172.878 263.939 176.65 259.083 179.19C254.303 181.729 248.402 182.999 241.381 182.999ZM241.381 178.629C250.045 178.629 256.581 176.164 260.988 171.235C265.395 166.305 267.599 158.872 267.599 148.938V137.061C267.599 127.127 265.395 119.694 260.988 114.765C256.581 109.835 250.045 107.37 241.381 107.37C232.716 107.37 226.18 109.835 221.773 114.765C217.366 119.694 215.162 127.127 215.162 137.061V148.938C215.162 158.872 217.366 166.305 221.773 171.235C226.18 176.164 232.716 178.629 241.381 178.629Z" fill="white"/>
<path d="M140 103H164.986C175.891 103 183.884 105.286 188.963 109.857C194.042 114.429 196.582 121.667 196.582 131.571V154.429C196.582 164.333 194.042 171.571 188.963 176.143C183.884 180.714 175.891 183 164.986 183H140V103ZM144.706 178.771H164.089C173.352 178.771 180.074 176.867 184.257 173.057C188.44 169.171 190.532 163 190.532 154.543V131.457C190.532 123 188.44 116.867 184.257 113.057C180.074 109.171 173.352 107.229 164.089 107.229H144.706L146.162 104.143V181.857L144.706 178.771Z" fill="white"/>
<path d="M95.3806 182.999C88.3592 182.999 82.4582 181.729 77.6777 179.19C72.8972 176.65 69.2371 172.878 66.6974 167.873C64.2325 162.794 63 156.594 63 149.274V136.725C63 129.33 64.2325 123.131 66.6974 118.126C69.2371 113.121 72.8972 109.349 77.6777 106.809C82.4582 104.27 88.3592 103 95.3806 103C102.402 103 108.303 104.27 113.084 106.809C117.939 109.349 121.599 113.121 124.064 118.126C126.529 123.131 127.761 129.33 127.761 136.725V149.274C127.761 156.594 126.529 162.794 124.064 167.873C121.599 172.878 117.939 176.65 113.084 179.19C108.303 181.729 102.402 182.999 95.3806 182.999ZM95.3806 178.629C104.045 178.629 110.581 176.164 114.988 171.235C119.395 166.305 121.599 158.872 121.599 148.938V137.061C121.599 127.127 119.395 119.694 114.988 114.765C110.581 109.835 104.045 107.37 95.3806 107.37C86.7159 107.37 80.18 109.835 75.773 114.765C71.3659 119.694 69.1624 127.127 69.1624 137.061V148.938C69.1624 158.872 71.3659 166.305 75.773 171.235C80.18 176.164 86.7159 178.629 95.3806 178.629Z" fill="white"/>
<rect x="248.41" y="75.335" width="5" height="20" transform="rotate(60 248.41 75.335)" fill="white"/>
<path fill-rule="evenodd" clip-rule="evenodd" d="M0 0H406V303.372H400V6H6V400H400V330.324C400 327.562 397.761 325.324 395 325.324H323.434C306.808 325.324 296.684 333.08 286.268 343.52C271.981 357.842 253.929 367.249 237.365 365.798C228.995 365.065 221.136 361.556 214.571 354.711C208.046 347.908 202.919 337.939 199.673 324.43C193.883 300.327 180.732 288.564 164.661 288.199C148.111 287.823 126.999 299.392 105.338 325.639C91.5639 342.329 76.9666 349.231 63.178 347.891C49.4793 346.56 37.5691 337.182 28.8991 323.489L33.9684 320.279C42.0574 333.055 52.5485 340.83 63.7583 341.919C74.8783 342.999 87.6967 337.589 100.71 321.82C122.791 295.064 145.487 281.762 164.797 282.201C184.586 282.651 199.348 297.39 205.507 323.029C208.584 335.835 213.318 344.736 218.902 350.558C224.446 356.339 230.945 359.212 237.889 359.821C251.953 361.053 268.357 352.979 282.021 339.282C292.811 328.466 304.397 319.324 323.434 319.324H395C401.075 319.324 406 324.249 406 330.324V406H0V0Z" fill="white"/>
</svg>